<svg
  xmlns="http://www.w3.org/2000/svg"
  width="24"
  height="22"
  fill="#f65261"
  fill-rule="evenodd"
><path
    d="M12.125 5.975l10.188.002c.111 0 .151-.02.149-.134l-.004-1.304c-.007-.817-.678-1.453-1.537-1.457-.665-.003-1.331.001-1.996-.003-.091-.001-.117.022-.115.109l.002.962a.75.75 0 0 1-.768.744.75.75 0 0 1-.769-.744l.003-.922c.004-.119-.03-.149-.157-.149l-9.183.003c-.368 0-.735.003-1.103-.002-.093-.001-.114.025-.113.109a36.24 36.24 0 0 1 .001.975c-.005.408-.349.732-.77.73-.426-.002-.764-.324-.767-.731l.002-.962c.002-.1-.027-.123-.13-.122l-1.954.003c-.894.002-1.564.637-1.566 1.484l-.004 1.251c-.004.142.045.161.178.161L12 5.975h.126zm-10.44 1.45c-.111 0-.149.018-.148.133l.003 11.459c0 .119.008.237.036.353.168.697.774 1.152 1.537 1.153H20.85c.951 0 1.611-.623 1.611-1.522l.003-11.419c0-.128-.033-.157-.166-.157l-10.285.003c-3.442 0-6.884.001-10.327-.002zm1.437 14.548c-1.505 0-2.728-.925-3.056-2.311A2.55 2.55 0 0 1 0 19.074V4.532c.001-1.466 1.146-2.688 2.686-2.878a3.05 3.05 0 0 1 .375-.022l2.01.002c.089 0 .119-.018.117-.107-.007-.268-.004-.536-.002-.804.003-.401.34-.72.759-.722.426-.003.773.316.777.721l-.001.817c-.001.074.021.105.1.095.023-.003.046 0 .07 0l10.216.004c.147 0 .175-.039.169-.166-.011-.245-.004-.492-.003-.738.003-.408.342-.731.765-.732s.768.318.771.725l-.002.764c-.004.11.018.148.148.146l1.954-.003c1.604.001 2.915 1.123 3.068 2.627a3.5 3.5 0 0 1 .019.355v14.45a2.7 2.7 0 0 1-.628 1.76c-.621.754-1.442 1.146-2.454 1.148l-8.918.002H3.12zm14.885-8.976c-.624 0-1.248-.003-1.872.003-.109.001-.136-.028-.136-.143V9.143c0-.119.033-.142.138-.142L19.867 9c.113 0 .133.035.132.145L20 12.86c0 .117-.03.14-.136.139l-1.857-.003zm-12.012.001c-.624 0-1.249-.002-1.873.002-.089.001-.123-.016-.122-.122V9.131C4 9.019 4.034 9 4.131 9h3.731c.105 0 .138.022.138.141v3.732c0 .119-.04.128-.132.127l-1.873-.002zm6.013-3.995l1.844-.002c.107-.001.148.018.148.147v3.713c.001.117-.031.139-.136.139-1.244-.004-2.488-.005-3.732.001-.113.001-.132-.035-.132-.144V9.143c0-.114.025-.144.135-.143l1.873.003zm5.992 6L19.871 15c.099-.001.129.022.129.131v3.733c0 .105-.02.135-.125.135a507.64 507.64 0 0 0-3.743 0c-.114 0-.133-.037-.132-.146v-3.718c0-.108.027-.136.128-.136l1.872.002zm-11.991-.001L7.852 15c.103-.001.149.012.148.144l-.001 3.718c0 .102-.018.138-.124.137H4.116C4.016 19 4 18.966 4 18.872v-3.749c0-.105.033-.123.122-.123l1.887.002zm5.987.001L13.854 15c.105-.001.147.017.146.145v3.702c.001.134-.039.153-.153.153l-3.702-.001c-.106 0-.145-.017-.145-.145v-3.701c-.001-.134.038-.154.152-.153l1.844.003z"
  /></svg>
